<?xml version="1.0" encoding="UTF-8" standalone="no"?>
<!-- Created with Inkscape (http://www.inkscape.org/) -->

<svg
   width="50.58923mm"
   height="29.986757mm"
   viewBox="0 0 50.589229 29.986757"
   version="1.1"
   id="svg1"
   xml:space="preserve"
   xmlns:xlink="http://www.w3.org/1999/xlink"
   xmlns="http://www.w3.org/2000/svg"
   xmlns:svg="http://www.w3.org/2000/svg"><defs
     id="defs1"><pattern
       xlink:href="#pattern19"
       preserveAspectRatio="xMidYMid"
       id="pattern20"
       patternTransform="scale(0.02)"
       x="0"
       y="0" /><pattern
       patternUnits="userSpaceOnUse"
       width="10"
       height="10"
       preserveAspectRatio="xMidYMid"
       style="fill:#292929"
       id="pattern19"
       x="0"
       y="0"><g
         id="g19"
         style="display:inline"
         transform="scale(0.1)"><circle
           style="fill-opacity:1;stroke:none;paint-order:markers fill stroke;stop-color:#000000"
           id="circle16"
           cx="50"
           cy="50"
           r="25" /><path
           id="path16"
           style="paint-order:markers fill stroke"
           d="M 25,0 A 25,25 0 0 1 0,25 25,25 0 0 1 -25,0 25,25 0 0 1 0,-25 25,25 0 0 1 25,0 Z" /><path
           id="path17"
           style="paint-order:markers fill stroke"
           d="M 125,0 A 25,25 0 0 1 100,25 25,25 0 0 1 75,0 25,25 0 0 1 100,-25 25,25 0 0 1 125,0 Z" /><path
           id="path18"
           style="paint-order:markers fill stroke"
           d="M 25,100 A 25,25 0 0 1 0,125 25,25 0 0 1 -25,100 25,25 0 0 1 0,75 25,25 0 0 1 25,100 Z" /><path
           id="path19"
           style="paint-order:markers fill stroke"
           d="m 125,100 a 25,25 0 0 1 -25,25 25,25 0 0 1 -25,-25 25,25 0 0 1 25,-25 25,25 0 0 1 25,25 z" /></g></pattern><pattern
       xlink:href="#pattern10"
       preserveAspectRatio="xMidYMid"
       id="pattern11"
       patternTransform="scale(0.02)"
       x="0"
       y="0" /><pattern
       patternUnits="userSpaceOnUse"
       width="10"
       height="10"
       preserveAspectRatio="xMidYMid"
       style="fill:#dd3a08"
       id="pattern10"
       x="0"
       y="0"><g
         id="g10"
         style="display:inline"
         transform="scale(0.1)"><circle
           style="fill-opacity:1;stroke:none;paint-order:markers fill stroke;stop-color:#000000"
           id="circle3"
           cx="50"
           cy="50"
           r="25" /><path
           id="path7"
           style="paint-order:markers fill stroke"
           d="M 25,0 A 25,25 0 0 1 0,25 25,25 0 0 1 -25,0 25,25 0 0 1 0,-25 25,25 0 0 1 25,0 Z" /><path
           id="path8"
           style="paint-order:markers fill stroke"
           d="M 125,0 A 25,25 0 0 1 100,25 25,25 0 0 1 75,0 25,25 0 0 1 100,-25 25,25 0 0 1 125,0 Z" /><path
           id="path9"
           style="paint-order:markers fill stroke"
           d="M 25,100 A 25,25 0 0 1 0,125 25,25 0 0 1 -25,100 25,25 0 0 1 0,75 25,25 0 0 1 25,100 Z" /><path
           id="path10"
           style="paint-order:markers fill stroke"
           d="m 125,100 a 25,25 0 0 1 -25,25 25,25 0 0 1 -25,-25 25,25 0 0 1 25,-25 25,25 0 0 1 25,25 z" /></g></pattern><pattern
       xlink:href="#halftones"
       preserveAspectRatio="xMidYMid"
       id="pattern2"
       patternTransform="scale(0.02)"
       x="0"
       y="0" /><pattern
       patternUnits="userSpaceOnUse"
       width="10"
       height="10"
       preserveAspectRatio="xMidYMid"
       style="fill:#292929"
       id="halftones"
       x="0"
       y="0"><g
         id="fullPattern"
         style="display:inline"
         transform="scale(0.1)"><circle
           style="fill-opacity:1;stroke:none;paint-order:markers fill stroke;stop-color:#000000"
           id="circle10"
           cx="50"
           cy="50"
           r="25" /><path
           id="circle37"
           style="paint-order:markers fill stroke"
           d="M 25,0 A 25,25 0 0 1 0,25 25,25 0 0 1 -25,0 25,25 0 0 1 0,-25 25,25 0 0 1 25,0 Z" /><path
           id="circle39"
           style="paint-order:markers fill stroke"
           d="M 125,0 A 25,25 0 0 1 100,25 25,25 0 0 1 75,0 25,25 0 0 1 100,-25 25,25 0 0 1 125,0 Z" /><path
           id="circle43"
           style="paint-order:markers fill stroke"
           d="M 25,100 A 25,25 0 0 1 0,125 25,25 0 0 1 -25,100 25,25 0 0 1 0,75 25,25 0 0 1 25,100 Z" /><path
           id="circle45"
           style="paint-order:markers fill stroke"
           d="m 125,100 a 25,25 0 0 1 -25,25 25,25 0 0 1 -25,-25 25,25 0 0 1 25,-25 25,25 0 0 1 25,25 z" /></g></pattern><marker
       style="overflow:visible"
       id="Triangle"
       refX="0"
       refY="0"
       orient="auto-start-reverse"
       markerWidth="1"
       markerHeight="1"
       viewBox="0 0 1 1"
       preserveAspectRatio="xMidYMid"><path
         transform="scale(0.5)"
         style="fill:context-stroke;fill-rule:evenodd;stroke:context-stroke;stroke-width:1pt"
         d="M 5.77,0 -2.88,5 V -5 Z"
         id="path135" /></marker></defs><g
     id="layer1"
     transform="translate(-26.067808,-27.05727)"><path
       id="rect12-3-7"
       style="opacity:0.99;fill:none;stroke:none;stroke-width:0.2"
       d="m 26.166157,40.019239 4.375978,-3.077723 v 12.263543 l -4.375978,3.077723 z" /><rect
       style="opacity:0.99;fill:#ed9952;fill-opacity:1;stroke:none;stroke-width:0.2;stroke-dasharray:none;stroke-opacity:1"
       id="rect12-6"
       width="18.77293"
       height="12.263543"
       x="30.559116"
       y="36.922871" /><path
       id="rect12-3-0-9"
       style="opacity:0.99;fill:#ae9e92;fill-opacity:1;stroke:none;stroke-width:0.2"
       d="m 26.139501,36.046514 4.419732,-3.108654 v 4.024169 l -4.419732,3.024951 z" /><rect
       style="opacity:0.99;fill:#ae9e92;fill-opacity:1;stroke:none;stroke-width:0.2;stroke-dasharray:none;stroke-opacity:1"
       id="rect12-6-0"
       width="18.77293"
       height="3.961611"
       x="30.551466"
       y="32.935062" /><path
       id="rect12-3-0"
       style="opacity:0.99;fill:#ad9e92;fill-opacity:1;stroke:none;stroke-width:0.2"
       d="m 44.905708,36.124409 4.419734,-3.024951 v 3.940465 l -4.419734,3.024952 z" /><path
       id="rect12-3-0-2"
       style="opacity:0.99;fill:#ad9e92;fill-opacity:1;stroke:none;stroke-width:0.2"
       d="m 44.912659,52.337852 4.424325,-3.095976 0.01098,4.01149 -4.435303,3.024952 z" /><path
       id="rect12-3-0-1-3"
       style="opacity:0.99;fill:#5796e7;fill-opacity:1;stroke:none;stroke-width:0.2"
       d="m 26.130878,35.307077 4.450593,-3.0649 -0.03106,0.748435 -4.419541,3.064899 z" /><rect
       style="opacity:0.99;fill:#5796e7;fill-opacity:1;stroke:none;stroke-width:0.2;stroke-dasharray:none;stroke-opacity:1"
       id="rect12-8-5"
       width="18.766188"
       height="0.76676339"
       x="26.145773"
       y="35.31345" /><rect
       style="opacity:0.99;fill:#5796e7;fill-opacity:1;stroke:none;stroke-width:0.2;stroke-dasharray:none;stroke-opacity:1"
       id="rect12-6-0-5"
       width="18.753979"
       height="0.76676339"
       x="30.574276"
       y="32.148628" /><path
       id="rect12-3-0-1"
       style="opacity:0.99;fill:#5796e7;fill-opacity:1;stroke:none;stroke-width:0.2"
       d="m 44.910395,35.306202 4.429608,-3.168922 -0.01779,0.884558 -4.41181,3.04406 z" /><path
       id="rect12-3-0-1-6"
       style="opacity:0.99;fill:#f03e36;fill-opacity:0.992157;stroke:none;stroke-width:0.2"
       d="m 44.9013,56.233607 4.447616,-2.97878 -0.0045,0.694417 -4.352748,3.005851 z" /><rect
       style="opacity:0.99;fill:#ed9952;fill-opacity:1;stroke:none;stroke-width:0.2;stroke-dasharray:none;stroke-opacity:1"
       id="rect12"
       width="18.87118"
       height="12.322492"
       x="26.123877"
       y="40.035553" /><path
       id="rect12-3"
       style="opacity:0.99;fill:#ed9952;fill-opacity:1;stroke:none;stroke-width:0.2"
       d="M 44.913212,40.093911 49.3359,37.016188 v 12.263543 l -4.422688,3.077723 z" /><path
       id="rect12-8-0"
       style="opacity:0.99;fill:#5796e6;fill-opacity:1;stroke:none;stroke-width:0.2"
       d="m 30.341487,32.136776 18.981759,0.0092 -4.025126,3.184474 -19.176252,-0.01474 z" /><rect
       style="opacity:0.99;fill:#ae9e92;fill-opacity:1;stroke:none;stroke-width:0.2;stroke-dasharray:none;stroke-opacity:1"
       id="rect12-8"
       width="18.802404"
       height="3.961611"
       x="26.126047"
       y="36.099884" /><rect
       style="opacity:0.99;fill:#ae9e92;fill-opacity:1;stroke:none;stroke-width:0.2;stroke-dasharray:none;stroke-opacity:1"
       id="rect12-8-1"
       width="18.871178"
       height="3.961611"
       x="26.121235"
       y="52.403061" /><rect
       style="opacity:0.99;fill:#f03e36;fill-opacity:1;stroke:none;stroke-width:0.2;stroke-dasharray:none;stroke-opacity:1"
       id="rect12-8-5-8"
       width="18.871315"
       height="0.74258935"
       x="26.44138"
       y="55.976101"
       transform="rotate(0.32871714)" /><path
       style="opacity:0.99;fill:none;fill-opacity:0.992157;stroke:#bababa;stroke-width:0.1;stroke-dasharray:0.3, 0.3;stroke-dashoffset:0;stroke-opacity:1"
       d="m 26.140985,39.930723 4.454137,-3.012764"
       id="path6-1-4-7-6" /><path
       style="opacity:0.99;fill:none;fill-opacity:0.992157;stroke:#bababa;stroke-width:0.1;stroke-dasharray:0.3, 0.3;stroke-dashoffset:0;stroke-opacity:1"
       d="m 26.155661,52.218491 4.454137,-3.012764"
       id="path6-1-4-7" /><path
       style="opacity:0.99;fill:#f03e36;fill-opacity:0.992157;stroke:#bababa;stroke-width:0.1;stroke-dasharray:0.3, 0.3;stroke-dashoffset:0;stroke-opacity:1"
       d="M 30.423952,32.254678 V 53.908465"
       id="path1-1" /><path
       style="opacity:0.99;fill:none;fill-opacity:0.992157;stroke:#bababa;stroke-width:0.0999999;stroke-dasharray:0.3, 0.3;stroke-dashoffset:0;stroke-opacity:1"
       d="m 30.402004,36.984039 18.851111,0.05857"
       id="path5-1-5-2-4-4" /><path
       style="opacity:0.99;fill:none;fill-opacity:0.992157;stroke:#bababa;stroke-width:0.0999999;stroke-dasharray:0.3, 0.3;stroke-dashoffset:0;stroke-opacity:1"
       d="m 30.41668,49.271807 18.851111,0.05857"
       id="path5-1-5-2-4" /><path
       style="opacity:0.99;fill:none;fill-opacity:0.992157;stroke:#bababa;stroke-width:0.0999999;stroke-dasharray:0.3, 0.3;stroke-dashoffset:0;stroke-opacity:1"
       d="m 30.377186,53.266896 18.851111,0.05857"
       id="path5-1-5-2" /><path
       style="opacity:0.99;fill:none;fill-opacity:0.992157;stroke:#b9b9b9;stroke-width:0.1;stroke-dasharray:0.3, 0.3;stroke-dashoffset:0;stroke-opacity:1"
       d="m 26.156652,56.83926 4.454137,-3.012764"
       id="path6-1-4-1" /><path
       style="opacity:0.99;fill:none;fill-opacity:0.992157;stroke:#bababa;stroke-width:0.0999999;stroke-dasharray:0.3, 0.3;stroke-dashoffset:0;stroke-opacity:1"
       d="m 30.44436,53.901298 18.851111,0.05857"
       id="path5-1-5-2-8" /><path
       style="opacity:0.99;fill:#f03e36;fill-opacity:0.992157;stroke:#000000;stroke-width:0.1;stroke-dasharray:none;stroke-opacity:1"
       d="M 44.926259,35.298945 V 56.952732"
       id="path1-4" /><path
       style="opacity:0.99;fill:#f03e36;fill-opacity:0.992157;stroke:#000000;stroke-width:0.1;stroke-dasharray:none;stroke-opacity:1"
       d="M 49.373713,32.123141 V 53.960474"
       id="path1-4-1" /><path
       style="opacity:0.99;fill:#f03e36;fill-opacity:0.992157;stroke:#000000;stroke-width:0.1;stroke-dasharray:none;stroke-opacity:1"
       d="M 30.367543,32.144188 H 49.422799"
       id="path3" /><path
       style="opacity:0.99;fill:none;fill-opacity:0.992157;stroke:#bababa;stroke-width:0.0999999;stroke-dasharray:0.3, 0.3;stroke-dashoffset:0;stroke-opacity:1"
       d="m 30.4169,32.979349 19.02191,-0.0087"
       id="path5-1-5-2-4-4-4" /><path
       style="opacity:0.99;fill:#f03e36;fill-opacity:0.992157;stroke:#000000;stroke-width:0.1;stroke-dasharray:none;stroke-opacity:1"
       d="m 26.099166,35.338407 4.296175,-3.203236"
       id="path4" /><path
       style="opacity:0.99;fill:none;fill-opacity:0.992157;stroke:#bababa;stroke-width:0.1;stroke-dasharray:0.3, 0.3;stroke-dashoffset:0;stroke-opacity:1"
       d="m 26.221807,36.041824 4.156481,-3.0293"
       id="path6-1-4-7-6-1" /><path
       style="opacity:0.99;fill:none;fill-opacity:0.992157;stroke:#000000;stroke-width:0.0999999;stroke-dasharray:none;stroke-opacity:1"
       d="m 26.06919,36.037545 18.851111,0.08337"
       id="path5" /><path
       style="opacity:0.99;fill:none;fill-opacity:0.992157;stroke:#000000;stroke-width:0.0999999;stroke-dasharray:none;stroke-opacity:1"
       d="m 26.100208,52.316384 18.851111,0.05857"
       id="path5-1-5" /><path
       style="opacity:0.99;fill:none;fill-opacity:0.992157;stroke:#bababa;stroke-width:0.1;stroke-dasharray:0.3, 0.3;stroke-dashoffset:0;stroke-opacity:1"
       d="m 26.107899,56.17224 4.454137,-3.012764"
       id="path6-1-4" /><path
       style="opacity:0.99;fill:none;fill-opacity:0.992157;stroke:#000000;stroke-width:0.0999999;stroke-dasharray:none;stroke-opacity:1"
       d="m 26.091752,56.17956 18.851111,0.08337"
       id="path5-1-5-7" /><path
       style="opacity:0.99;fill:none;fill-opacity:0.992157;stroke:#000000;stroke-width:0.0999999;stroke-dasharray:none;stroke-opacity:1"
       d="m 26.080559,56.910659 18.851111,0.08337"
       id="path5-1-5-7-7" /><path
       style="opacity:0.99;fill:none;fill-opacity:0.992157;stroke:#000000;stroke-width:0.1;stroke-dasharray:none;stroke-opacity:1"
       d="m 44.904817,57.002772 4.489915,-3.083117"
       id="path6" /><path
       style="opacity:0.99;fill:none;fill-opacity:0.992157;stroke:#000000;stroke-width:0.1;stroke-dasharray:none;stroke-opacity:1"
       d="m 44.941185,56.25243 4.454137,-3.012764"
       id="path6-1" /><path
       style="opacity:0.99;fill:none;fill-opacity:0.992157;stroke:#000000;stroke-width:0.1;stroke-dasharray:none;stroke-opacity:1"
       d="m 44.929515,52.399123 4.430687,-3.082581"
       id="path6-1-5" /><path
       style="opacity:0.99;fill:none;fill-opacity:0.992157;stroke:#000000;stroke-width:0.1;stroke-dasharray:none;stroke-opacity:1"
       d="m 44.927956,40.111869 4.430687,-3.082581"
       id="path6-1-5-6" /><path
       style="opacity:0.99;fill:none;fill-opacity:0.992157;stroke:#000000;stroke-width:0.1;stroke-dasharray:none;stroke-opacity:1"
       d="m 44.900978,36.137436 4.471045,-3.199285"
       id="path6-1-5-6-1" /><path
       style="opacity:0.99;fill:none;fill-opacity:0.992157;stroke:#000000;stroke-width:0.1;stroke-dasharray:none;stroke-opacity:1"
       d="m 26.117999,35.30944 18.801347,0.01965 4.350162,-3.091146 h -0.02771"
       id="path2" /><path
       style="opacity:0.99;fill:#f03e36;fill-opacity:0.992157;stroke:#000000;stroke-width:0.1;stroke-dasharray:none;stroke-opacity:1"
       d="M 26.117808,35.30944 V 56.963227"
       id="path1" /><path
       style="fill:none;stroke:#140d07;stroke-width:0.0912171;stroke-dasharray:none;stroke-dashoffset:0;stroke-opacity:1"
       d="m 35.608446,30.307684 4.633616,-2.877871"
       id="path8-8-5-7-4" /><rect
       style="fill:#f03e36;fill-opacity:0.992157;stroke:#140d07;stroke-width:0.0999997;stroke-dasharray:none;stroke-opacity:1"
       id="rect17"
       width="6.1515622"
       height="0.96410054"
       x="56.54327"
       y="48.239563" /><text
       xml:space="preserve"
       style="font-size:3.52778px;font-family:Calibri;-inkscape-font-specification:'Calibri, Normal';fill:#0c0b0a;fill-opacity:1;stroke:none;stroke-width:0.1;stroke-dasharray:none;stroke-opacity:1"
       x="64.50679"
       y="48.994701"
       id="text17"><tspan
         id="tspan17"
         style="font-style:normal;font-variant:normal;font-weight:normal;font-stretch:normal;font-size:1.41111px;font-family:Arial;-inkscape-font-specification:'Arial, Normal';font-variant-ligatures:normal;font-variant-caps:normal;font-variant-numeric:normal;font-variant-east-asian:normal;fill:#0c0b0a;fill-opacity:1;stroke:none;stroke-width:0.1"
         x="64.50679"
         y="48.994701">powered electrode</tspan></text><rect
       style="fill:#5796e5;fill-opacity:1;stroke:#140d07;stroke-width:0.0999997;stroke-dasharray:none;stroke-opacity:1"
       id="rect17-8"
       width="6.1515622"
       height="0.96410054"
       x="56.528282"
       y="45.994156" /><text
       xml:space="preserve"
       style="font-size:3.52778px;font-family:Calibri;-inkscape-font-specification:'Calibri, Normal';fill:#0c0b0a;fill-opacity:1;stroke:none;stroke-width:0.1;stroke-dasharray:none;stroke-opacity:1"
       x="64.555115"
       y="46.848515"
       id="text17-9"><tspan
         id="tspan17-1"
         style="font-style:normal;font-variant:normal;font-weight:normal;font-stretch:normal;font-size:1.41111px;font-family:Arial;-inkscape-font-specification:'Arial, Normal';font-variant-ligatures:normal;font-variant-caps:normal;font-variant-numeric:normal;font-variant-east-asian:normal;fill:#0c0b0a;fill-opacity:1;stroke:none;stroke-width:0.1"
         x="64.555115"
         y="46.848515">grounded electrode</tspan></text><text
       xml:space="preserve"
       style="font-size:3.52778px;font-family:Calibri;-inkscape-font-specification:'Calibri, Normal';fill:#0c0b0a;fill-opacity:1;stroke:none;stroke-width:0.1;stroke-dasharray:none;stroke-opacity:1"
       x="51.33131"
       y="34.872871"
       id="text17-9-2"><tspan
         id="tspan17-1-3"
         style="font-style:normal;font-variant:normal;font-weight:normal;font-stretch:normal;font-size:1.41111px;font-family:Arial;-inkscape-font-specification:'Arial, Normal';font-variant-ligatures:normal;font-variant-caps:normal;font-variant-numeric:normal;font-variant-east-asian:normal;fill:#0c0b0a;fill-opacity:1;stroke:none;stroke-width:0.1"
         x="51.33131"
         y="34.872871">Modelling domain</tspan></text><rect
       style="fill:#ed9952;fill-opacity:0.992157;stroke:#140d07;stroke-width:0.0999997;stroke-dasharray:none;stroke-opacity:1"
       id="rect17-84"
       width="6.1515622"
       height="0.96410054"
       x="56.529316"
       y="43.540604" /><text
       xml:space="preserve"
       style="font-size:3.52778px;font-family:Calibri;-inkscape-font-specification:'Calibri, Normal';fill:#0c0b0a;fill-opacity:1;stroke:none;stroke-width:0.1;stroke-dasharray:none;stroke-opacity:1"
       x="64.516243"
       y="44.246136"
       id="text17-95"><tspan
         id="tspan17-9"
         style="font-style:normal;font-variant:normal;font-weight:normal;font-stretch:normal;font-size:1.41111px;font-family:Arial;-inkscape-font-specification:'Arial, Normal';font-variant-ligatures:normal;font-variant-caps:normal;font-variant-numeric:normal;font-variant-east-asian:normal;fill:#0c0b0a;fill-opacity:1;stroke:none;stroke-width:0.1"
         x="64.516243"
         y="44.246136">plasma</tspan></text><rect
       style="fill:#af9e92;fill-opacity:1;stroke:#140d07;stroke-width:0.0999997;stroke-dasharray:none;stroke-opacity:1"
       id="rect17-8-6"
       width="6.1515622"
       height="0.96410054"
       x="56.5611"
       y="41.2952" /><text
       xml:space="preserve"
       style="font-size:3.52778px;font-family:Calibri;-inkscape-font-specification:'Calibri, Normal';fill:#0c0b0a;fill-opacity:1;stroke:none;stroke-width:0.1;stroke-dasharray:none;stroke-opacity:1"
       x="64.557709"
       y="42.083416"
       id="text17-9-1"><tspan
         id="tspan17-1-7"
         style="font-style:normal;font-variant:normal;font-weight:normal;font-stretch:normal;font-size:1.41111px;font-family:Arial;-inkscape-font-specification:'Arial, Normal';font-variant-ligatures:normal;font-variant-caps:normal;font-variant-numeric:normal;font-variant-east-asian:normal;fill:#0c0b0a;fill-opacity:1;stroke:none;stroke-width:0.1"
         x="64.557709"
         y="42.083416">dielectric</tspan></text><path
       style="fill:#5796e5;fill-opacity:1;stroke:#140d07;stroke-width:0.1;stroke-dasharray:none;stroke-opacity:1;marker-end:url(#Triangle)"
       d="m 50.945097,34.612402 -10.38342,4.396583"
       id="path22" /><path
       style="fill:#5796e5;fill-opacity:1;stroke:#140d07;stroke-width:0.1;stroke-dasharray:none;stroke-opacity:1"
       d="m 54.787436,35.977054 c -0.01559,7.077893 0.01852,13.486949 0.0029,20.237731"
       id="path23" /><path
       style="fill:#5796e5;fill-opacity:1;stroke:#140d07;stroke-width:0.1;stroke-dasharray:none;stroke-opacity:1"
       d="m 54.423497,36.027417 h 0.727604"
       id="path24" /><path
       style="fill:#5796e5;fill-opacity:1;stroke:#140d07;stroke-width:0.1;stroke-dasharray:none;stroke-opacity:1"
       d="m 35.596163,30.641233 -0.0019,-0.727602"
       id="path24-8" /><path
       style="fill:#5796e5;fill-opacity:1;stroke:#140d07;stroke-width:0.1;stroke-dasharray:none;stroke-opacity:1"
       d="m 40.224024,27.785003 -0.0019,-0.727602"
       id="path24-8-3" /><path
       style="fill:#5796e5;fill-opacity:1;stroke:#140d07;stroke-width:0.1;stroke-dasharray:none;stroke-opacity:1"
       d="m 54.422815,40.134253 h 0.727604"
       id="path24-0" /><path
       style="fill:#5796e5;fill-opacity:1;stroke:#140d07;stroke-width:0.1;stroke-dasharray:none;stroke-opacity:1"
       d="m 54.422795,52.346692 h 0.727604"
       id="path24-0-3" /><path
       style="fill:#5796e5;fill-opacity:1;stroke:#140d07;stroke-width:0.1;stroke-dasharray:none;stroke-opacity:1"
       d="m 54.425702,56.226612 h 0.727604"
       id="path24-0-3-2" /><text
       xml:space="preserve"
       style="font-style:normal;font-variant:normal;font-weight:normal;font-stretch:normal;font-size:1.41111px;font-family:Arial;-inkscape-font-specification:'Arial, Normal';font-variant-ligatures:normal;font-variant-caps:normal;font-variant-numeric:normal;font-variant-east-asian:normal;fill:#140d07;fill-opacity:1;stroke:none;stroke-width:0.1;stroke-dasharray:none;stroke-opacity:1"
       x="-54.799618"
       y="54.215271"
       id="text24"
       transform="rotate(-90)"><tspan
         id="tspan24"
         style="fill:#140d07;fill-opacity:1;stroke:none;stroke-width:0.1"
         x="-54.799618"
         y="54.215271"><tspan
           style="font-style:italic"
           id="tspan26">Δ</tspan><tspan
           style="font-size:65%;baseline-shift:sub"
           id="tspan25">d</tspan></tspan></text><text
       xml:space="preserve"
       style="font-style:normal;font-variant:normal;font-weight:normal;font-stretch:normal;font-size:1.41111px;font-family:Arial;-inkscape-font-specification:'Arial, Normal';font-variant-ligatures:normal;font-variant-caps:normal;font-variant-numeric:normal;font-variant-east-asian:normal;fill:#140d07;fill-opacity:1;stroke:none;stroke-width:0.1;stroke-dasharray:none;stroke-opacity:1"
       x="-38.676445"
       y="54.222099"
       id="text24-1"
       transform="rotate(-90)"><tspan
         id="tspan24-1"
         style="fill:#140d07;fill-opacity:1;stroke:none;stroke-width:0.1"
         x="-38.676445"
         y="54.222099"><tspan
           style="font-style:italic"
           id="tspan27">Δ</tspan><tspan
           style="font-size:65%;baseline-shift:sub"
           id="tspan25-0">d</tspan></tspan></text><text
       xml:space="preserve"
       style="font-style:normal;font-variant:normal;font-weight:normal;font-stretch:normal;font-size:1.41111px;font-family:Arial;-inkscape-font-specification:'Arial, Normal';font-variant-ligatures:normal;font-variant-caps:normal;font-variant-numeric:normal;font-variant-east-asian:normal;fill:#140d07;fill-opacity:1;stroke:none;stroke-width:0.1;stroke-dasharray:none;stroke-opacity:1"
       x="-46.754505"
       y="54.222099"
       id="text24-1-6"
       transform="rotate(-90)"><tspan
         id="tspan24-1-9"
         style="font-style:italic;fill:#140d07;fill-opacity:1;stroke:none;stroke-width:0.1"
         x="-46.754505"
         y="54.222099">d</tspan></text><text
       xml:space="preserve"
       style="font-style:normal;font-variant:normal;font-weight:normal;font-stretch:normal;font-size:1.41111px;font-family:Arial;-inkscape-font-specification:'Arial, Normal';font-variant-ligatures:normal;font-variant-caps:normal;font-variant-numeric:normal;font-variant-east-asian:normal;fill:#140d07;fill-opacity:1;stroke:none;stroke-width:0.1;stroke-dasharray:none;stroke-opacity:1"
       x="19.444624"
       y="42.64365"
       id="text24-1-6-0"
       transform="rotate(-28.208762)"><tspan
         id="tspan24-1-9-7"
         style="font-style:italic;fill:#140d07;fill-opacity:1;stroke:none;stroke-width:0.1"
         x="19.444624"
         y="42.64365">l<tspan
   style="font-style:normal;font-size:65%;baseline-shift:sub"
   id="tspan5">e</tspan></tspan></text><path
       style="opacity:0.99;fill:none;fill-opacity:0.992157;stroke:#000000;stroke-width:0.0999999;stroke-dasharray:none;stroke-opacity:1"
       d="m 26.121228,40.025071 18.851111,0.08337"
       id="path5-1" /><rect
       style="fill:url(#pattern2);fill-opacity:1;stroke-width:0.214136;stroke-dasharray:0.642423, 0.642423"
       id="rect1"
       width="5.5092664"
       height="4.0083709"
       x="42.040112"
       y="58.550331"
       ry="0"
       transform="matrix(0.84472857,-0.53519496,6.3387816e-4,0.9999998,0,0)" /><rect
       style="fill:url(#pattern20);fill-opacity:1;stroke:none;stroke-width:0.210198;stroke-dasharray:0.630609, 0.630609"
       id="rect1-1"
       width="5.4646401"
       height="3.8938384"
       x="41.250496"
       y="74.060295"
       ry="0"
       transform="matrix(0.84789802,-0.53015936,0.00772613,0.99997015,0,0)" /><rect
       style="fill:url(#pattern11);fill-opacity:1;stroke-width:0.213673;stroke-dasharray:0.641034, 0.641034"
       id="rect1-8"
       width="5.4701657"
       height="12.16198"
       x="42.018402"
       y="62.476074"
       ry="0"
       transform="matrix(0.84554173,-0.53390933,6.3601617e-4,0.9999998,0,0)" /><path
       style="fill:none;stroke:#c90404;stroke-width:0.2;stroke-dasharray:0.600008, 0.600008;stroke-dashoffset:0;stroke-opacity:1"
       d="m 35.541606,36.209193 0.0016,19.927414"
       id="path8-8-5" /><path
       style="fill:none;stroke:#c90404;stroke-width:0.2;stroke-dasharray:0.600008, 0.600008;stroke-dashoffset:0;stroke-opacity:1"
       d="m 40.206321,33.314434 0.0016,19.927414"
       id="path8-8-5-9" /><path
       style="fill:none;stroke:#c90404;stroke-width:0.2;stroke-dasharray:0.60001, 0.60001;stroke-dashoffset:0;stroke-opacity:1"
       d="m 35.504188,56.128581 5.05885,-3.168017"
       id="path8-8-5-7-6" /><path
       style="fill:none;stroke:#c90404;stroke-width:0.2;stroke-dasharray:0.60001, 0.60001;stroke-dashoffset:0;stroke-opacity:1"
       d="m 35.620776,35.985567 5.05885,-3.168017"
       id="path8-8-5-7" /><ellipse
       style="fill:#6cea85;fill-opacity:1;stroke:#6cea85;stroke-width:0.145691;stroke-dasharray:none;stroke-opacity:1"
       id="path9-7-4-8-1-2-1-0-9-0"
       cx="36.156754"
       cy="-35.550232"
       rx="0.11586019"
       ry="0.1179883"
       transform="rotate(90)" /><ellipse
       style="fill:#6cea85;fill-opacity:1;stroke:#6cea85;stroke-width:0.145691;stroke-dasharray:none;stroke-opacity:1"
       id="path9-7-4-8-1-2-1-0-9"
       cx="33.109222"
       cy="-40.249454"
       rx="0.11586019"
       ry="0.1179883"
       transform="rotate(90)" /><ellipse
       style="fill:#6cea85;fill-opacity:1;stroke:#6cea85;stroke-width:0.145691;stroke-dasharray:none;stroke-opacity:1"
       id="path9-7-4-8-1-2-1"
       cx="40.064461"
       cy="-35.533726"
       rx="0.11586019"
       ry="0.1179883"
       transform="rotate(90)" /><ellipse
       style="fill:#6cea85;fill-opacity:1;stroke:#6cea85;stroke-width:0.145691;stroke-dasharray:none;stroke-opacity:1"
       id="path9-7-4-8-1-2-1-0"
       cx="36.987186"
       cy="-40.192616"
       rx="0.11586019"
       ry="0.1179883"
       transform="rotate(90)" /><ellipse
       style="fill:#6cea85;fill-opacity:1;stroke:#6cea85;stroke-width:0.145691;stroke-dasharray:none;stroke-opacity:1"
       id="path9-7-4-8-1-2-1-6-7"
       cx="52.311089"
       cy="-35.526882"
       rx="0.11586019"
       ry="0.1179883"
       transform="rotate(90)" /><ellipse
       style="fill:#6cea85;fill-opacity:1;stroke:#6cea85;stroke-width:0.145691;stroke-dasharray:none;stroke-opacity:1"
       id="path9-7-4-8-1-2-1-6"
       cx="49.278275"
       cy="-40.187565"
       rx="0.11586019"
       ry="0.1179883"
       transform="rotate(90)" /><ellipse
       style="fill:#6cea85;fill-opacity:1;stroke:#6cea85;stroke-width:0.145691;stroke-dasharray:none;stroke-opacity:1"
       id="path9-7-4-8-1-2-1-6-7-6"
       cx="56.131657"
       cy="-35.519058"
       rx="0.11586019"
       ry="0.1179883"
       transform="rotate(90)" /><ellipse
       style="fill:#6cea85;fill-opacity:1;stroke:#6cea85;stroke-width:0.145691;stroke-dasharray:none;stroke-opacity:1"
       id="path9-7-4-8-1-2-1-6-6"
       cx="53.237286"
       cy="-40.204067"
       rx="0.11586019"
       ry="0.1179883"
       transform="rotate(90)" /></g></svg>
